Coordinates
version=1
nRows=17
nColumns=24
inDegrees=yes

Units are S.I. units (second, meters, Newtons, ...)
Angles are in degrees.

endheader
time	pelvis_tilt	pelvis_list	pelvis_rotation	pelvis_tx	pelvis_ty	pelvis_tz	hip_flexion_r	hip_adduction_r	hip_rotation_r	knee_angle_r	ankle_angle_r	subtalar_angle_r	mtp_angle_r	hip_flexion_l	hip_adduction_l	hip_rotation_l	knee_angle_l	ankle_angle_l	subtalar_angle_l	mtp_angle_l	lumbar_extension	lumbar_bending	lumbar_rotation
      0.78150000	     -0.88733990	     -1.78799357	      2.03320499	     -0.47498678	      0.99749201	      0.31838396	     10.72667015	      5.51040255	     -6.07013012	    -15.96817755	      7.40051118	     -5.05439200	      3.88643409	     19.58904805	     -1.48765090	      0.84297095	    -69.30548347	     -7.05991165	     -7.59636704	      2.17351204	     -0.35341063	      5.44528548	      2.28759287
      0.78566667	     -0.83163265	     -1.71295867	      1.98013603	     -0.46991346	      0.99817834	      0.31867359	     10.17706895	      5.45647309	     -6.12530984	    -15.65581490	      7.53554842	     -4.71137210	      3.91798546	     20.07812422	     -1.37181672	      0.84632297	    -69.07290725	     -6.41091819	     -7.71937974	      2.06291726	     -0.44535446	      5.37214633	      2.51052210
      0.78983333	     -0.84699352	     -1.62784372	      1.90511972	     -0.46489618	      0.99872622	      0.31897514	      9.72481402	      5.39730647	     -6.10634687	    -15.38236504	      7.65348775	     -4.58800578	      3.92982974	     20.63499118	     -1.24220130	      0.82604639	    -68.79423709	     -5.76332332	     -7.96260063	      2.03459754	     -0.45529963	      5.29345034	      2.58304174
      0.79400000	     -0.77897267	     -1.54710454	      1.82155482	     -0.45983560	      0.99935427	      0.31932666	      9.17538970	      5.34345126	     -6.12898943	    -15.09535562	      7.79168033	     -4.28677980	      3.95996388	     21.07642012	     -1.14650525	      0.77372335	    -68.45599257	     -5.06381548	     -8.07705910	      1.94050473	     -0.56729887	      5.19101376	      2.82733396
      0.79816667	     -0.77148651	     -1.47135150	      1.73082421	     -0.45483353	      0.99982432	      0.31966227	      8.70883184	      5.29426861	     -6.11786237	    -14.83552566	      7.91823989	     -4.04889093	      3.99305171	     21.58162247	     -1.04671848	      0.72679518	    -68.08625857	     -4.37957803	     -8.24550504	      1.83193393	     -0.61240887	      5.10800259	      3.01848588
      0.80233333	     -0.78342347	     -1.38091526	      1.63597508	     -0.44985079	      1.00026930	      0.31999798	      8.26612917	      5.23198811	     -6.06461709	    -14.58087100	      8.02668693	     -3.92965879	      4.00654110	     22.08792104	     -0.93098193	      0.67033297	    -67.65029653	     -3.72262390	     -8.46565242	      1.79646289	     -0.64180842	      5.01088578	      3.09940810
      0.80650000	     -0.75718431	     -1.31209064	      1.53832960	     -0.44483366	      1.00071407	      0.32036000	      7.77144874	      5.19384593	     -6.04068835	    -14.30125714	      8.14957168	     -3.69948127	      4.04192245	     22.53581281	     -0.85516534	      0.60467371	    -67.16978653	     -3.05568313	     -8.57061818	      1.66586055	     -0.70774643	      4.91316301	      3.36291925
      0.81066667	     -0.77728259	     -1.23314343	      1.41743375	     -0.43985517	      1.00105815	      0.32071646	      7.34742392	      5.14481396	     -5.96451991	    -14.06244784	      8.26242607	     -3.58166844	      4.05628003	     23.01688114	     -0.76937052	      0.51623136	    -66.63641411	     -2.41413513	     -8.75165574	      1.62042146	     -0.71077479	      4.83753711	      3.45493575
      0.81483333	     -0.78163661	     -1.15668799	      1.30617602	     -0.43488038	      1.00137437	      0.32107502	      6.89662526	      5.09940689	     -5.89094963	    -13.79826109	      8.38743016	     -3.40168586	      4.08112581	     23.46832289	     -0.68920413	      0.43679742	    -66.05926660	     -1.79032848	     -8.83803545	      1.51534198	     -0.74950921	      4.74592734	      3.69355970
      0.81900000	     -0.80621389	     -1.07937456	      1.18122618	     -0.42991687	      1.00162797	      0.32143171	      6.48323082	      5.05096519	     -5.80469464	    -13.56661755	      8.48866890	     -3.28940448	      4.09451795	     23.92248748	     -0.61166663	      0.34220839	    -65.42939720	     -1.19825383	     -9.00611030	      1.45793389	     -0.75290891	      4.66444700	      3.79736704
      0.82316667	     -0.82907557	     -1.00356152	      1.05420790	     -0.42496063	      1.00183476	      0.32179139	      6.06564112	      5.00472208	     -5.70788954	    -13.32677411	      8.59705528	     -3.15880387	      4.10884888	     24.36007361	     -0.54081187	      0.24371197	    -64.75616917	     -0.63477498	     -9.12093927	      1.38637315	     -0.76666932	      4.57857992	      3.95675880
      0.82733333	     -0.88860286	     -0.94442930	      0.95434348	     -0.42003101	      1.00194276	      0.32210946	      5.68367003	      4.97552078	     -5.60882540	    -13.07243281	      8.70230981	     -3.05673470	      4.11736596	     24.83408815	     -0.47152736	      0.18610259	    -64.05052608	     -0.13595606	     -9.25489892	      1.34800898	     -0.75264988	      4.49692446	      4.04925800
      0.83150000	     -0.88333161	     -0.87428501	      0.80199344	     -0.41506544	      1.00212123	      0.32248613	      5.24112229	      4.93467466	     -5.48835129	    -12.84208016	      8.79714546	     -2.93778289	      4.12932207	     25.19632662	     -0.42733008	      0.05333166	    -63.27251602	      0.36566321	     -9.33498194	      1.25996170	     -0.78927956	      4.42799646	      4.25360934
      0.83566667	     -0.95231428	     -0.82485409	      0.70803043	     -0.41013099	      1.00213020	      0.32278087	      4.86736667	      4.91391889	     -5.39212175	    -12.58167992	      8.90050805	     -2.84917958	      4.13568620	     25.64779013	     -0.36956929	      0.00157044	    -62.47705907	      0.77753403	     -9.45049867	      1.22272481	     -0.75447982	      4.35866193	      4.33026654
      0.83983333	     -0.95130991	     -0.75445892	      0.56434962	     -0.40517418	      1.00222209	      0.32312839	      4.42505704	      4.87055666	     -5.26184017	    -12.33851078	      8.99067882	     -2.74346011	      4.14947750	     25.98057210	     -0.32119433	     -0.11886067	    -61.60576204	      1.16411665	     -9.52492582	      1.03771357	     -0.79672064	      4.28494326	      4.63236585
      0.84400000	     -1.00197591	     -0.69214762	      0.42703745	     -0.40024432	      1.00219018	      0.32344299	      4.05265942	      4.83122776	     -5.13405008	    -12.12071108	      9.07358466	     -2.66156262	      4.15650080	     26.36018748	     -0.27302806	     -0.22508654	    -60.70244467	      1.51816792	     -9.64107118	      0.95413484	     -0.77986690	      4.21945492	      4.68667503
      0.84816667	     -1.03518869	     -0.63937842	      0.30193695	     -0.39529737	      1.00215030	      0.32374677	      3.64673984	      4.80389146	     -5.00443479	    -11.87199003	      9.15748126	     -2.58328124	      4.16315383	     26.70219599	     -0.23354737	     -0.31821187	    -59.75373480	      1.81142883	     -9.74168963	      0.85083786	     -0.78321638	      4.16060198	      4.79803099
